
        <svg xmlns="http://www.w3.org/2000/svg" xmlns:xlink="http://www.w3.org/1999/xlink" version="1.1" width="4200"
        height="4200" viewBox="550.2 -212.54 3099.6 3099.6">

			<g transform="scale(60) translate(10, 10)">
				<g id="SvgjsG1342" featureKey="nameFeature-0" transform="matrix(2.7012558989246562,0,0,2.7012558989246562,-3.241508173559896,-86.44017846111551)" fill="#00ddff" stroke="#00ddff" stroke-width="0.8" stroke-linejoin="round" stroke-linecap="round"><path d="M4.56 32.36 c-1.32 2.28 -2.56 5.6 -2.6 6.8 c-0.04 0.8 0.16 1.12 0.44 1.12 c0.52 0 1.36 -0.84 2.68 -2.12 c1.32 -1.24 1.92 -1.72 2.44 -1.72 c0.48 0 0.88 0.36 0.88 0.76 c0 0.36 -0.16 1.48 -0.16 1.76 c-0.04 0.48 0.04 0.56 0.2 0.56 c0.52 0 1.2 -0.64 1.76 -1.36 c0.4 -0.52 0.72 -1.04 0.84 -1.4 c0.24 -0.52 0.32 -0.72 0.52 -0.72 c0.36 -0.08 0.4 0.4 2.04 0.32 c1.76 -0.12 4.72 -0.96 5.64 -1.28 c0.52 -0.16 0.64 0.16 0.2 0.4 c-0.84 0.48 -3.24 1.28 -5.2 1.44 c-1.88 0.12 -2.28 -0.2 -2.36 -0.12 c-0.08 0.04 -0.4 0.84 -1 1.76 c-0.52 0.8 -1.52 1.64 -2.44 1.64 c-0.72 0 -0.92 -0.44 -0.92 -1 c0 -0.64 0.2 -1.4 0.2 -1.88 c0 -0.16 0 -0.32 -0.16 -0.32 c-0.32 0 -0.48 0.4 -2.04 1.84 c-1.76 1.68 -2.4 2.16 -3 2.24 c-0.96 0.16 -1.32 -0.8 -1.32 -1.44 c0 -1.12 0.8 -3.64 1.72 -5.64 c0.72 -1.52 1.04 -2 1.36 -2 s0.48 0.04 0.28 0.36 z "></path></g>
			</g>
		</svg>
	